<svg xmlns="http://www.w3.org/2000/svg" xmlns:xlink="http://www.w3.org/1999/xlink" width="500" zoomAndPan="magnify" viewBox="0 0 375 374.999991" height="500" preserveAspectRatio="xMidYMid meet" version="1.0"><defs><clipPath id="9d37f99f6a"><path d="M 56.277344 56.277344 L 318.777344 56.277344 L 318.777344 318.777344 L 56.277344 318.777344 Z M 56.277344 56.277344 " clip-rule="nonzero"/></clipPath><clipPath id="f587f898ca"><path d="M 56.277344 56.277344 L 188 56.277344 L 188 254 L 56.277344 254 Z M 56.277344 56.277344 " clip-rule="nonzero"/></clipPath><clipPath id="d76095e6ee"><path d="M 122 56.277344 L 254 56.277344 L 254 254 L 122 254 Z M 122 56.277344 " clip-rule="nonzero"/></clipPath></defs><g clip-path="url(#9d37f99f6a)"><path fill="#1d1d1f" d="M 286.753906 56.277344 L 286.753906 286.542969 L 56.277344 286.542969 L 56.277344 318.71875 L 318.71875 318.71875 L 318.71875 56.277344 Z M 286.753906 56.277344 " fill-opacity="1" fill-rule="nonzero"/></g><g clip-path="url(#f587f898ca)"><path fill="#1d1d1f" d="M 88.453125 88.453125 L 187.550781 88.453125 L 187.550781 56.277344 L 56.277344 56.277344 L 56.277344 253.160156 L 88.453125 253.160156 Z M 88.453125 88.453125 " fill-opacity="1" fill-rule="nonzero"/></g><g clip-path="url(#d76095e6ee)"><path fill="#1d1d1f" d="M 138 121.835938 L 122.042969 121.835938 L 122.042969 253.210938 L 253.109375 253.210938 L 253.109375 56.277344 L 220.933594 56.277344 L 220.933594 121.78125 L 138 121.78125 Z M 220.933594 221.039062 L 153.957031 221.039062 L 153.957031 154.0625 L 220.933594 154.0625 Z M 220.933594 221.039062 " fill-opacity="1" fill-rule="nonzero"/></g></svg>