<?xml version="1.0" standalone="no"?>
<svg id="SvgjsSvg1001" width="600" height="600" xmlns="http://www.w3.org/2000/svg" version="1.1" xmlns:xlink="http://www.w3.org/1999/xlink" xmlns:svgjs="http://svgjs.com/svgjs" class="svg-paper" viewBox="0 0 600 600"><title id="SvgjsTitle3120">x=y|y=max(cos(cos(((x-sqrt(x*x + y*y))+sqrt(x*x + y*y)))),x)|dTest=0.0|sd=0.2|sm=0.2|ts=0.05 | generated with FlowLines</title><g id="SvgjsG3121"><polyline id="SvgjsPolyline3122" points="408.92,599.72 397.55,595.87 383.18,591.58 371.56,588.59 356.89,585.45 330.21,581.33 273.64,574.35 249.94,570.6 229.33,566.55 185.43,556.67 161.9,551.94 138.21,548.08 87.7,541.07 64.06,536.92 40.64,531.68 0,521.08" fill="none" stroke="#000000" stroke-width="1"/><polyline id="SvgjsPolyline3123" points="437.91,598.88 415.81,589.52 396.11,582.25 376.05,576.06 358.57,571.76 346.79,569.47 334.94,567.58 275.46,559.78 245.86,554.91 228.23,551.25 181.54,540.12 158.07,535.12 134.42,531.03 83.98,523.51 63.34,519.63 37.09,513.35 2.46,503.52" fill="none" stroke="#000000" stroke-width="1"/><polyline id="SvgjsPolyline3124" points="365.85,599.58 351.13,596.69 336.3,594.44 273.75,586.96 247.05,582.99 226.41,579.12 179.46,569.1 158.83,565.21 135.11,561.55 87.51,555.35 60.87,550.99 37.39,546.04 2.42,537.49" fill="none" stroke="#000000" stroke-width="1"/><polyline id="SvgjsPolyline3125" points="464.26,599 437.55,585.35 423.94,579.04 412.9,574.32 398.93,568.87 387.6,564.91 376.15,561.35 364.56,558.21 352.87,555.54 338.11,552.86 317.34,549.74 275.72,544.1 260.91,541.72 246.17,538.94 225.68,534.34 182.1,523.16 158.71,517.76 135.13,513.32 87.74,505.7 61.28,500.32 38.08,494.19 0.87,482.53" fill="none" stroke="#000000" stroke-width="1"/><polyline id="SvgjsPolyline3126" points="281.26,599.98 260.43,597.32 239.69,594.03 177.91,581.7 154.27,577.55 133.48,574.59 88.82,569.08 62.13,564.99 38.59,560.34 0.59,551.59" fill="none" stroke="#000000" stroke-width="1"/><polyline id="SvgjsPolyline3127" points="488.01,599.34 472.62,590 457.03,581.01 441.18,572.48 425.06,564.48 411.39,558.3 397.51,552.62 383.4,547.52 369.08,543.07 354.55,539.35 339.84,536.41 319.12,533.02 274.59,526.51 250.99,522.16 227.63,516.67 178.5,503 158.12,497.92 140.51,494.19 93.26,485.77 72.7,481.52 58.15,477.86 40.9,472.72 23.87,466.91 1.32,458.67" fill="none" stroke="#000000" stroke-width="1"/><polyline id="SvgjsPolyline3128" points="204.85,599.44 178.35,594.26 154.69,590.28 130.91,587.07 86.22,581.79 62.48,578.28 38.89,573.87 0.79,565.54" fill="none" stroke="#000000" stroke-width="1"/><polyline id="SvgjsPolyline3129" points="509.27,599.31 486.9,584.19 469.21,572.88 453.79,563.6 438.1,554.76 422.13,546.47 405.84,538.82 389.21,531.93 375.09,526.87 357.84,521.76 343.22,518.4 322.56,514.63 275.16,507.05 248.71,501.65 225.51,495.51 179.68,481.27 156.57,474.8 136.12,470.01 92.02,461.07 74.51,456.9 60.09,452.78 43.06,446.94 23.59,439.09 1.65,429.36" fill="none" stroke="#000000" stroke-width="1"/><polyline id="SvgjsPolyline3130" points="501.6,599.92 484,588.47 466.09,577.49 450.48,568.54 434.59,560.08 418.4,552.22 404.66,546.2 390.7,540.73 376.5,535.9 359.16,531.06 344.5,527.91 323.81,524.34 279.32,517.57 252.81,512.47 229.52,506.67 180.59,492.3 160.28,486.97 139.78,482.44 95.56,474.08 75.04,469.61 57.66,464.96 43.36,460.4 26.45,454.24 1.37,444.24" fill="none" stroke="#000000" stroke-width="1"/><polyline id="SvgjsPolyline3131" points="135.34,599.71 87.65,594.3 63.88,590.99 40.25,586.81 2.07,578.86" fill="none" stroke="#000000" stroke-width="1"/><polyline id="SvgjsPolyline3132" points="528.13,598.49 506.5,582.34 486.97,568.39 467.09,554.94 449.36,543.69 428.65,531.57 412.75,523.13 396.5,515.38 382.68,509.56 362.89,502.56 345.52,497.86 324.95,493.6 274.75,484.62 260.09,481.46 245.55,477.77 222.62,470.7 177.45,454.47 157.5,447.93 134.37,441.5 93.58,431.52 76.29,426.52 67.76,423.65 56.56,419.35 40.18,411.88 21.75,401.83 1.38,389.15" fill="none" stroke="#000000" stroke-width="1"/><polyline id="SvgjsPolyline3133" points="520.83,599.28 501.34,585.28 481.52,571.75 461.31,558.8 445.86,549.57 427.47,539.43 411.36,531.4 397.68,525.26 380.92,518.7 363.79,513.16 346.33,508.83 322.75,504.35 278.37,496.91 251.98,491.23 228.87,484.77 180.48,468.67 157.52,461.69 140.09,457.17 93.24,446.74 75.82,442.23 58.67,436.77 41.89,430.25 25.52,422.79 1.46,410.52" fill="none" stroke="#000000" stroke-width="1"/><polyline id="SvgjsPolyline3134" points="43.94,599.73 2.74,591.57" fill="none" stroke="#000000" stroke-width="1"/><polyline id="SvgjsPolyline3135" points="547.03,598.46 521.41,577.66 497.76,559.2 478.53,544.84 456.48,529.26 438.96,517.68 421.06,506.71 402.7,496.52 386.54,488.58 367.16,480.51 355.82,476.6 347.18,474.07 323.84,468.51 273.9,458.17 259.36,454.48 242.16,449.2 230.86,445.14 216.95,439.54 175.86,421.19 159.28,414.2 139.63,406.8 94.2,391.3 80.33,385.58 66.95,378.82 54.28,370.8 49.46,367.23 42.56,361.46 36.07,355.22 32.02,350.8 24.63,341.35 18.42,331.09 15.85,325.67 13.72,320.07 12.06,314.3 10.94,308.41 10.35,299.44 11.11,290.48 12.33,284.61 14.08,278.87 16.3,273.3 18.94,267.91 25.28,257.73 32.76,248.35 36.86,243.97 43.4,237.79 47.99,233.94 55.2,228.55 67.93,220.63 81.36,213.95 95.25,208.3 140.69,192.83 157.54,186.5 174.14,179.56 215.22,161.19 229.11,155.53 240.38,151.41 254.67,146.86 272.08,142.26 324.94,131.25 348.27,125.63 359.74,122.12 368.22,119.09 387.57,110.95 403.7,102.96 419.44,94.24 437.38,83.33 457.41,70.11 477.02,56.26 498.66,40.12 522.29,21.64 547.88,0.81" fill="none" stroke="#000000" stroke-width="1"/><polyline id="SvgjsPolyline3136" points="540.44,599.31 519.23,582.61 497.69,566.33 478.21,552.31 458.37,538.82 440.64,527.56 425.12,518.44 409.27,509.9 393.06,502.1 382.02,497.39 370.8,493.14 359.39,489.41 350.73,486.99 324.37,481.14 271.36,470.89 256.77,467.37 245.22,464.13 233.78,460.5 219.66,455.45 177.84,438.84 158.14,431.57 135.26,424.33 94.84,412.94 77.77,407.23 66.63,402.76 55.77,397.66 47.84,393.4 37.59,387.16 27.73,380.33 18.26,372.96 9.2,365.1 0.55,356.78" fill="none" stroke="#000000" stroke-width="1"/><polyline id="SvgjsPolyline3137" points="565.92,599.14 538.87,575.39 513.79,553.95 493,536.71 469.55,518.01 448.01,501.72 428.44,487.83 410.89,476.3 395.47,467.03 382.29,459.86 371.51,454.59 360.5,449.82 349.26,445.64 326.24,438.87 276.82,426.26 262.5,421.81 251.23,417.68 240.18,413 226.73,406.37 213.68,398.97 201,390.97 176.37,373.85 149.9,354.14 135.87,342.87 124.85,332.7 120.81,328.27 117.09,323.56 112.42,315.88 110.18,310.32 109.39,307.43 108.57,301.49 108.57,298.49 109.39,292.55 110.19,289.66 111.21,286.84 113.84,281.46 118.91,274.03 126.99,265.17 138.18,255.19 154.69,242.21 181.26,222.63 201.01,209.01 213.7,201.02 226.75,193.62 240.2,186.99 251.25,182.31 262.52,178.19 276.84,173.74 326.26,161.13 349.28,154.35 360.52,150.18 371.53,145.4 382.31,140.13 395.49,132.96 410.91,123.69 428.46,112.15 450.45,96.49 467.19,83.81 486.03,68.94 511.51,47.97 536.62,26.56 565.93,0.83" fill="none" stroke="#000000" stroke-width="1"/><polyline id="SvgjsPolyline3138" points="558.13,599.28 532.97,577.93 509.79,558.88 486.25,540.29 464.66,524.07 445.07,510.21 427.54,498.64 409.58,487.77 393.77,479.17 372.06,468.95 360.91,464.51 349.55,460.65 326.36,454.47 288.3,445.96 270.83,441.66 253.58,436.51 236.69,430.29 225.67,425.55 214.82,420.42 159.06,391.11 142.86,383.26 107.39,367.04 99.37,362.98 91.53,358.56 81.53,351.93 74.53,346.27 68.13,339.96 62.48,332.96 57.78,325.29 54.25,317.02 52.07,308.3 51.4,299.34 51.83,293.35 53.73,284.57 57.03,276.21 61.53,268.42 67.01,261.29 71.12,256.92 75.53,252.85 82.6,247.29 92.67,240.76 108.59,232.38 141.34,217.44 157.56,209.64 216.02,179 226.88,173.9 237.93,169.22 254.84,163.08 272.11,158 286.67,154.42 324.74,145.91 347.95,139.84 359.34,136.07 370.52,131.7 381.48,126.82 392.24,121.5 408.02,112.86 425.97,101.96 443.49,90.38 463.08,76.51 484.67,60.3 508.22,41.72 531.41,22.69 556.59,1.35" fill="none" stroke="#000000" stroke-width="1"/><polyline id="SvgjsPolyline3139" points="554.55,599.82 526.88,576.78 503.47,558.02 479.66,539.78 460.23,525.69 440.39,512.19 422.61,501.01 407.01,492.04 391.02,483.78 371.81,475.3 363.39,472.14 351.97,468.45 328.71,462.56 287.63,453.81 273.04,450.34 255.72,445.42 241.54,440.54 230.38,436.13 216.65,430.09 176.18,410.41 159.84,402.87 140.46,394.78 101.3,379.61 90.33,374.75 79.67,369.25 69.48,362.91 59.97,355.61 51.33,347.28 45.58,340.37 42.16,335.44 39.11,330.27 35.35,322.1 33.45,316.41 32.09,310.57 31.15,301.63 31.59,292.65 32.64,286.74 34.25,280.97 37.63,272.63 40.46,267.34 43.68,262.28 47.26,257.47 51.16,252.91 59.77,244.56 69.27,237.24 79.44,230.88 90.09,225.36 101.06,220.49 137.42,206.39 156.81,198.32 173.16,190.8 213.64,171.15 227.37,165.1 238.52,160.68 255.56,154.9 272.91,150.11 325.67,138.59 348.93,132.7 357.51,129.99 368.78,125.86 388,117.41 404,109.18 422.19,98.69 442.44,85.8 462.2,72.18 481.56,58.01 502.97,41.56 524.06,24.69 551.76,1.7" fill="none" stroke="#000000" stroke-width="1"/><polyline id="SvgjsPolyline3140" points="543.19,598.27 519.74,579.56 495.91,561.33 476.51,547.21 456.73,533.61 439.06,522.26 420.99,511.57 405.13,503.06 386.13,494.12 377.82,490.67 366.56,486.51 349.33,481.33 328.87,476.63 275.91,466.08 261.34,462.51 246.94,458.33 235.56,454.51 221.52,449.23 177.24,430.71 160.46,424.2 137.72,416.52 94.71,403.31 80.66,398.06 69.7,393.18 59.08,387.59 48.89,381.26 39.19,374.2 29.98,366.51 21.29,358.24 13.28,349.31 6.09,339.71 1.39,332.04" fill="none" stroke="#000000" stroke-width="1"/><polyline id="SvgjsPolyline3141" points="545.58,599.63 519.83,578.99 498.43,562.54 479.09,548.33 456.89,532.96 439.25,521.57 421.2,510.84 402.68,500.94 386.38,493.3 366.84,485.64 349.62,480.41 329.16,475.67 276.21,465.07 258.75,460.7 244.39,456.37 221.85,448.16 177.63,429.49 160.88,422.9 141.04,416.03 95.22,401.73 81.19,396.42 67.57,390.15 57.09,384.31 44.64,375.95 33.06,366.43 24.52,358.01 18.6,351.23 14.92,346.49 8.35,336.45 5.55,331.15 3.13,325.66 0.39,317.09" fill="none" stroke="#000000" stroke-width="1"/><polyline id="SvgjsPolyline3142" points="0.71,281.61 3.96,273.23 9.68,262.69 16.6,252.89 24.43,243.8 33.02,235.43 42.26,227.78 52.07,220.87 65.03,213.33 78.6,206.94 92.59,201.53 138.32,186.96 158.12,179.97 174.84,173.31 218.98,154.46 241.5,146.17 258.74,141 273.3,137.38 323.29,127.29 346.67,121.89 355.32,119.43 366.7,115.62 386.16,107.73 405.05,98.56 420.82,89.9 438.81,79.06 456.41,67.6 476.12,53.91 495.47,39.71 521.6,19.56 544.97,0.75" fill="none" stroke="#000000" stroke-width="1"/><polyline id="SvgjsPolyline3143" points="533.89,598.42 512.46,582.01 493.11,567.81 473.42,554.08 453.34,540.94 437.97,531.57 419.66,521.3 403.59,513.19 389.91,507.04 370.3,499.54 358.85,495.95 350.15,493.64 329.63,489.19 276.53,479.36 261.9,476.07 250.29,473.03 238.79,469.61 224.57,464.85 179.63,447.97 156.92,440.24 139.64,435.2 96.09,423.85 78.91,418.51 70.45,415.43 59.38,410.81 51.24,406.96 40.65,401.32 30.36,395.15 20.35,388.53 1.08,374.24" fill="none" stroke="#000000" stroke-width="1"/><polyline id="SvgjsPolyline3144" points="582.62,598.42 516.8,537.03 490.1,512.89 467.59,493.05 447.05,475.52 428.5,460.3 411.96,447.37 395.02,434.95 375.02,421.7 364.67,415.61 354.06,410.03 345.89,406.25 334.78,401.7 292.57,386.12 275.94,379.23 267.86,375.29 260,370.9 252.43,366.03 245.23,360.63 236.33,352.6 230.27,345.94 224.86,338.76 220.21,331.06 216.45,322.88 213.76,314.3 212.29,305.43 212.05,299.44 212.4,293.45 214.03,284.61 216.86,276.07 220.74,267.96 225.5,260.32 230.99,253.2 239.28,244.53 246.1,238.66 253.35,233.33 260.96,228.53 268.85,224.2 276.96,220.31 290.81,214.55 335.83,197.89 346.91,193.3 355.06,189.48 365.65,183.84 375.97,177.71 395.93,164.4 412.85,151.95 429.37,139 447.91,123.76 472.96,102.27 497.63,80.36 524.26,56.13 583.43,0.81" fill="none" stroke="#000000" stroke-width="1"/><polyline id="SvgjsPolyline3145" points="575.4,599.33 542.11,569.06 517.44,547.15 492.48,525.56 469.45,506.34 450.71,491.33 431.62,476.79 414.53,464.59 394.51,451.37 381.63,443.68 371.08,437.96 360.28,432.72 349.22,428.07 326.48,420.41 283.32,407.68 271.96,403.82 260.79,399.45 249.88,394.44 239.32,388.75 231.66,384.02 221.84,377.14 212.48,369.63 201.49,359.43 191.4,348.34 184.14,338.78 177.9,328.54 175.3,323.14 173.13,317.54 170.91,308.83 170.15,299.87 170.96,290.92 173.22,282.22 176.66,273.91 182.61,263.5 189.66,253.8 199.57,242.54 210.41,232.17 222.04,222.71 229.37,217.5 239.54,211.12 250.11,205.44 261.02,200.45 269.38,197.13 280.71,193.17 326.72,179.52 349.46,171.83 360.51,167.18 371.3,161.93 381.85,156.2 394.72,148.5 412.26,136.96 429.35,124.75 448.45,110.22 469.51,93.33 494.8,72.13 519.72,50.49 575.42,0.27" fill="none" stroke="#000000" stroke-width="1"/><polyline id="SvgjsPolyline3146" points="570.57,598.7 543.75,574.68 516.64,551 493.76,531.6 470.52,512.62 451.6,497.86 432.29,483.6 415,471.69 397.23,460.51 386.82,454.54 373.5,447.64 362.57,442.69 351.39,438.34 328.47,431.24 282.14,418.68 270.71,415.01 259.46,410.85 248.45,406.08 237.73,400.7 224.78,393.13 214.8,386.46 198.06,373.79 184.39,362.09 171.46,349.57 161.46,338.39 154.32,328.76 151.2,323.64 148.5,318.28 145.56,309.78 144.54,303.88 144.36,300.88 144.41,297.88 145.17,291.94 147.81,283.35 150.35,277.91 153.36,272.73 160.35,262.98 170.24,251.7 183.09,239.1 199.02,225.43 213.43,214.65 223.44,208.03 233.78,201.95 244.46,196.47 255.42,191.6 266.64,187.34 278.04,183.6 327.22,170.09 350.09,162.84 361.23,158.39 372.12,153.35 382.78,147.83 395.79,140.38 411.03,130.79 428.36,118.94 447.71,104.75 466.68,90.04 489.96,71.12 515.16,49.81 542.28,26.14 571.33,0.12" fill="none" stroke="#000000" stroke-width="1"/><polyline id="SvgjsPolyline3147" points="561.46,598.22 534.21,574.7 508.89,553.53 487.87,536.59 466.5,520.09 447.12,505.93 432.3,495.72 414.63,484.37 399.09,475.29 385.82,468.3 374.97,463.17 363.9,458.55 352.6,454.52 329.49,448.06 291.53,439.13 274.1,434.61 256.94,429.19 240.18,422.63 223.91,414.94 208.1,406.35 159.29,376.91 117.88,352.63 107.86,346.03 100.69,340.6 94,334.58 88.05,327.84 83.14,320.31 80.63,314.86 79.65,312.03 78.29,306.19 77.81,300.22 78.23,294.24 79.52,288.38 80.48,285.54 82.93,280.07 87.78,272.5 93.7,265.73 100.36,259.68 109.97,252.5 120.07,246.02 158.92,223.31 205.15,195.42 220.96,186.8 237.21,179.08 253.95,172.48 271.11,167.03 285.61,163.19 329.38,152.75 343.84,148.78 352.42,146.07 363.67,141.88 374.69,137.13 385.49,131.91 396.08,126.28 411.64,117.22 429.33,105.91 449.06,92.24 465.97,79.79 487.33,63.28 510.66,44.42 535.94,23.21 560.91,1.64" fill="none" stroke="#000000" stroke-width="1"/><polyline id="SvgjsPolyline3148" points="567.7,598.34 540.75,574.46 513.49,550.95 490.45,531.74 467.02,513 447.92,498.47 428.4,484.51 410.89,472.92 395.48,463.62 382.3,456.46 371.51,451.21 363.26,447.61 352.04,443.35 329.06,436.44 279.73,423.53 268.28,419.93 257.01,415.83 243.23,409.89 232.52,404.49 222.1,398.54 209.47,390.46 194.81,380.01 175.97,365.14 160.12,351.38 147.33,338.72 137.79,327.15 134.43,322.18 131.54,316.93 129.28,311.37 128.45,308.49 127.85,305.55 127.4,299.58 127.57,296.58 128.67,290.69 129.56,287.82 131.91,282.31 134.88,277.1 138.29,272.17 146.01,262.98 156.61,252.37 172.33,238.46 191.06,223.45 208.1,211.19 220.75,203.12 231.18,197.2 241.91,191.82 252.91,187.03 264.15,182.82 278.44,178.28 327.75,165.26 350.68,158.19 361.85,153.82 372.78,148.87 383.48,143.44 396.56,136.09 414.38,125 431.75,113.19 451.14,99.04 467.78,86.24 491.16,67.44 514.17,48.19 536.89,28.6 568.33,0.76" fill="none" stroke="#000000" stroke-width="1"/><polyline id="SvgjsPolyline3149" points="564.57,599.22 539.71,577.52 514.55,556.17 491.35,537.15 467.73,518.64 448.47,504.34 428.76,490.63 411.08,479.31 395.52,470.27 384.9,464.67 374.08,459.5 363.02,454.84 351.73,450.78 328.64,444.23 279.12,432.05 264.76,427.73 253.44,423.73 239.6,417.97 226.12,411.4 212.99,404.14 197.63,394.76 137.49,355.17 125.23,346.54 115.86,339.04 111.47,334.96 105.35,328.36 99.95,321.17 97.05,315.92 94.9,310.33 93.64,304.47 93.38,301.48 93.64,295.49 94.16,292.54 94.91,289.63 97.07,284.04 99.97,278.79 103.46,273.92 107.39,269.38 111.65,265.16 120.82,257.43 132.95,248.61 195.43,207.12 210.78,197.72 223.89,190.44 237.37,183.86 251.21,178.1 262.53,174.1 276.89,169.78 326.39,157.5 349.45,150.86 360.72,146.76 371.76,142.06 382.58,136.86 395.8,129.78 411.29,120.61 428.9,109.18 448.55,95.4 467.78,81.04 489.02,64.37 512.23,45.37 537.41,24.03 564.54,0.37" fill="none" stroke="#000000" stroke-width="1"/><polyline id="SvgjsPolyline3150" points="559.78,598.85 534.71,577.39 513.96,560.12 490.57,541.33 469.15,524.89 447.28,509.06 429.88,497.31 412.05,486.21 396.37,477.38 385.68,471.93 374.78,466.9 363.67,462.39 352.33,458.46 329.17,452.18 291.15,443.5 273.7,439.1 256.49,433.83 239.66,427.46 225.97,421.32 212.59,414.55 160.19,385.32 117.44,363.51 104.34,356.2 94.34,349.57 87.33,343.94 80.92,337.62 75.37,330.55 70.65,322.89 67.09,314.63 65.09,305.87 64.71,299.89 65.12,293.91 67.16,285.16 69.4,279.59 73.88,271.79 79.45,264.73 85.85,258.41 92.85,252.77 102.83,246.11 115.89,238.73 158.48,216.6 208.13,188.6 221.46,181.73 235.08,175.45 251.85,168.91 271.9,162.68 286.43,158.98 327.35,149.52 350.48,143.12 361.79,139.13 372.89,134.55 383.76,129.48 394.43,123.99 410.09,115.12 427.9,103.99 447.75,90.5 467.16,76.39 488.58,59.95 509.65,43.07 537.32,20.04 560.08,0.5" fill="none" stroke="#000000" stroke-width="1"/><polyline id="SvgjsPolyline3151" points="1.33,253.51 9.19,244.45 17.67,235.96 26.69,228.04 36.19,220.72 46.15,214.03 56.53,208.02 67.29,202.7 78.35,198.06 95.34,192.12 135.63,180.28 155.6,173.77 175.26,166.4 219.71,148.28 242.34,140.31 256.74,136.11 271.31,132.53 324.28,122.09 347.69,116.78 359.21,113.44 370.56,109.54 381.72,105.13 392.69,100.28 408.83,92.3 424.59,83.62 442.58,72.79 457.7,63.01 479.92,47.68 496.89,35.31 518.38,18.96 541.89,0.32" fill="none" stroke="#000000" stroke-width="1"/><polyline id="SvgjsPolyline3152" points="599.34,598.21 440.88,438.46 392.75,389.03 363.97,358.44 346.17,338.14 340.61,331.06 337.23,326.11 332.9,318.23 330.69,312.65 329.21,306.84 328.61,300.88 328.94,294.89 330.18,289.03 332.19,283.38 334.81,277.98 337.91,272.85 343.17,265.55 350.84,256.32 360.77,245.08 387.39,216.57 431.25,171.35 486.01,115.81 598.1,3.04" fill="none" stroke="#000000" stroke-width="1"/><polyline id="SvgjsPolyline3153" points="592.59,599.71 525.8,534.99 473.57,485.43 429.31,444.93 397.54,417.46 376.43,400.63 366.77,393.5 356.88,386.72 344.07,378.91 299.35,354.4 286.8,346.2 277.51,338.61 273.27,334.37 269.39,329.79 265.96,324.87 263.08,319.62 260.82,314.06 259.3,308.26 258.56,302.31 258.51,299.31 258.66,296.32 259.58,290.39 261.28,284.64 263.69,279.15 266.71,273.97 270.25,269.13 274.21,264.63 278.53,260.46 287.91,253 297.96,246.44 308.36,240.45 345.27,220.41 358.03,212.53 377.52,198.54 398.59,181.66 414.58,168.04 432.57,152.15 470.16,117.69 524.58,66.08 591.37,1.37" fill="none" stroke="#000000" stroke-width="1"/><polyline id="SvgjsPolyline3154" points="589.01,599.76 526.07,539.7 471.02,488.77 450.88,470.79 430.46,453.12 414.31,439.7 395.44,424.87 375.93,410.89 365.85,404.39 358.1,399.81 350.17,395.57 339.33,390.4 298.12,372.35 284.59,365.88 271.59,358.4 264.22,353.23 259.56,349.46 253.04,343.26 249.07,338.76 243.8,331.48 240.82,326.27 237.29,318 235.64,312.23 234.62,306.32 234.25,300.34 234.54,294.35 235.5,288.43 237.08,282.64 240.51,274.33 243.44,269.1 248.64,261.76 252.58,257.23 259.05,250.99 263.69,247.18 271.02,241.97 283.99,234.43 297.5,227.93 336,211.14 346.84,206.01 354.8,201.8 372.69,190.81 382.56,184 394.65,175.11 411.18,162.16 429.67,146.86 450.1,129.21 470.26,111.25 523.17,62.42 588.35,0.36" fill="none" stroke="#000000" stroke-width="1"/><polyline id="SvgjsPolyline3155" points="580.4,599.41 547.42,568.8 518.57,542.55 493.9,520.63 471.19,501.03 448.11,481.87 431.65,468.83 414.87,456.21 397.66,444.17 377.29,431.48 366.76,425.73 358.68,421.77 350.43,418.17 336.39,412.91 290.79,397.91 271.17,390.45 260.25,385.48 252.29,381.27 242.08,374.97 234.78,369.71 225.6,361.99 217.13,353.5 209.52,344.23 204.48,336.77 201.51,331.56 198.9,326.16 195.79,317.72 193.8,308.95 193.12,299.98 193.81,291.02 195.8,282.25 198.92,273.81 201.53,268.41 204.5,263.2 209.54,255.75 217.16,246.48 225.62,237.98 234.81,230.27 242.11,225.01 252.32,218.71 260.28,214.51 271.2,209.54 288.04,203.18 336.45,187.15 347.67,182.89 355.92,179.3 364,175.35 374.55,169.62 394.94,156.98 409.75,146.75 429,132.42 447.83,117.53 468.62,100.31 491.38,80.76 516.09,58.89 544.98,32.69 580.2,0.08" fill="none" stroke="#000000" stroke-width="1"/><polyline id="SvgjsPolyline3156" points="572.5,599.02 521.02,553.08 495.97,531.59 472.86,512.47 451.68,495.73 432.46,481.35 412.76,467.65 397.57,457.99 387.22,451.92 373.97,444.9 363.09,439.83 351.96,435.36 329.1,428.05 282.87,415.16 271.47,411.41 260.25,407.15 249.29,402.28 238.63,396.76 228.33,390.6 218.41,383.86 204.23,372.78 190.93,360.65 180.64,349.75 171.34,337.99 165.06,327.77 161.41,319.55 159.69,313.81 158.48,307.93 157.8,298.97 158.88,290.05 161.52,281.46 163.97,275.98 166.85,270.72 173.55,260.77 183.12,249.23 193.6,238.5 204.77,228.49 216.57,219.24 226.46,212.44 236.72,206.23 247.35,200.67 258.3,195.76 269.51,191.46 280.9,187.69 327.07,174.58 349.88,167.12 360.98,162.57 371.82,157.43 382.42,151.81 395.37,144.23 410.52,134.52 427.77,122.54 447.02,108.21 468.23,91.51 489.08,74.35 516.45,50.97 538.98,31.16 572.41,1.04" fill="none" stroke="#000000" stroke-width="1"/><polyline id="SvgjsPolyline3157" points="0.42,236.26 9.49,228.39 18.88,220.93 28.61,213.91 38.69,207.39 49.11,201.45 57.15,197.4 65.35,193.7 76.52,189.31 93.62,183.7 137.01,171.78 157.07,165.58 176.84,158.5 218.77,142.15 232.91,137.16 244.35,133.54 258.81,129.57 273.43,126.19 326.47,116.1 346.98,111.56 355.66,109.21 367.09,105.57 378.35,101.4 389.42,96.78 405.7,89.11 421.62,80.7 439.76,70.14 457.52,58.93 477.41,45.49 494.5,33.29 516.13,17.13 537.43,0.54" fill="none" stroke="#000000" stroke-width="1"/><polyline id="SvgjsPolyline3158" points="599.37,581.24 546.38,524 520.33,494.98 502.56,474.65 483.18,451.75 469.93,435.45 457.04,418.88 444.64,401.93 434.55,387.03 426.67,374.27 419.44,361.13 413.09,347.54 408.85,336.32 405.56,324.78 403.43,312.98 402.62,301.01 403.2,289.03 405.12,277.19 408.23,265.61 412.32,254.33 418.53,240.68 425.65,227.48 433.46,214.67 443.48,199.72 454.02,185.14 466.81,168.48 483.81,147.5 501.24,126.88 540.99,81.94 597.99,20.24" fill="none" stroke="#000000" stroke-width="1"/><polyline id="SvgjsPolyline3159" points="599.15,589.85 532.7,520.56 481.6,465.67 463.55,445.59 443.83,422.98 428.44,404.57 417.25,390.47 406.51,376.03 398.05,363.64 390.26,350.82 384.72,340.18 380.07,329.12 377.37,320.54 376.02,314.7 375.1,308.77 374.59,299.79 375.15,290.81 376.11,284.89 377.48,279.05 380.22,270.48 384.91,259.44 390.47,248.81 398.28,236.01 406.75,223.63 417.51,209.2 430.61,192.79 446.06,174.42 481.93,134.06 533.06,79.19 599.52,9.92" fill="none" stroke="#000000" stroke-width="1"/><polyline id="SvgjsPolyline3160" points="597.01,599.81 477.27,481.97 438.44,444.45 407.93,415.59 383.56,393.34 367.7,379.58 351.42,366.31 322.68,344.64 315.78,338.86 309.21,332.71 305.12,328.32 301.38,323.63 296.7,315.96 294.45,310.4 293.65,307.51 292.83,301.58 292.82,298.58 293.09,295.59 294.4,289.74 295.41,286.92 298.03,281.53 303.11,274.1 311.24,265.29 317.93,259.28 324.9,253.59 351.3,233.79 362.98,224.38 383.39,206.7 403.34,188.51 438.24,155.56 479.23,115.95 596.84,0.22" fill="none" stroke="#000000" stroke-width="1"/><polyline id="SvgjsPolyline3161" points="599.11,594.21 521.53,514.83 469.61,460.7 430.82,418.94 414.85,401.02 399.28,382.76 388.05,368.7 377.39,354.19 370.76,344.2 364.77,333.8 360.92,325.66 357.87,317.2 355.89,308.43 355.26,299.46 356.06,290.51 358.18,281.77 361.35,273.35 365.27,265.25 371.33,254.89 378.01,244.93 386.94,232.88 398.19,218.83 409.82,205.09 425.7,187.1 468.47,140.84 524.53,82.37 597.9,7.27" fill="none" stroke="#000000" stroke-width="1"/><polyline id="SvgjsPolyline3162" points="598.75,599.59 481.81,483.19 411.36,413.64 374.73,378.15 359.44,363.75 341.67,347.63 333.09,339.24 323.28,327.9 319.79,323.02 316.75,317.85 315.44,315.15 313.39,309.52 312.24,303.64 312.05,300.64 312.12,297.65 313.06,291.73 313.89,288.85 316.17,283.3 319.09,278.06 322.5,273.13 326.25,268.45 332.33,261.81 338.75,255.51 367.39,229.04 408.35,189.39 483.05,115.61 597.86,1.31" fill="none" stroke="#000000" stroke-width="1"/><polyline id="SvgjsPolyline3163" points="599.47,596.87 517.25,513.63 454.4,449.21 410.99,403.55 382.84,372.39 371.25,358.62 363.84,349.18 356.87,339.41 352.1,331.78 347.97,323.79 345.75,318.22 343.23,309.58 342.68,306.63 342.18,300.66 342.5,294.67 344.44,285.9 347.76,277.54 351.97,269.59 358.46,259.49 365.54,249.81 372.99,240.4 384.6,226.65 412.72,195.45 456.06,149.73 512.55,91.67 598.9,4.09" fill="none" stroke="#000000" stroke-width="1"/><polyline id="SvgjsPolyline3164" points="593.19,597.98 522.44,528.73 474.93,482.91 433.45,443.82 400.07,413.65 377.16,394.27 360.55,381.43 350.71,374.57 312.72,350.45 303,343.42 293.82,335.7 289.53,331.5 285.59,326.98 282.1,322.1 279.18,316.87 276.98,311.29 276.19,308.4 275.3,302.47 275.22,299.47 275.39,296.48 276.44,290.57 278.38,284.9 279.65,282.18 284.41,274.56 288.22,269.93 292.4,265.63 299.18,259.71 308.81,252.56 321.33,244.29 346.71,228.3 361.43,217.95 380.25,203.05 400.76,185.49 431.9,157.32 473.41,118.26 531.69,62.01 593.86,1.14" fill="none" stroke="#000000" stroke-width="1"/><polyline id="SvgjsPolyline3165" points="590.74,599.94 523.65,535.54 471.03,486.39 430.76,450.42 412.46,434.9 398.47,423.57 376.87,407.37 366.94,400.63 356.74,394.32 340.82,385.93 305.52,369.35 292.13,362.59 279.29,354.85 269.75,347.58 263.25,341.36 259.33,336.82 255.82,331.96 252.79,326.78 250.3,321.33 248.43,315.63 247.24,309.75 246.45,300.79 246.72,294.8 247.72,288.89 249.42,283.14 251.74,277.61 254.63,272.35 258.02,267.4 261.83,262.77 268.2,256.42 277.61,248.99 290.33,241.05 303.63,234.11 338.73,217.11 354.55,208.54 372.14,197.08 393.77,180.92 407.77,169.61 426.09,154.1 466.38,118.15 519.01,69.02 590.42,0.45" fill="none" stroke="#000000" stroke-width="1"/><polyline id="SvgjsPolyline3166" points="1.82,219.16 21.67,205.68 39.79,195.07 50.51,189.69 58.73,186.02 69.9,181.63 78.4,178.7 95.67,173.6 136.37,163.24 156.54,157.41 179.26,149.69 221.46,134.05 235.69,129.33 247.2,125.94 261.74,122.23 273.46,119.66 323.62,110.47 347.1,105.5 364.41,100.6 384.13,93.38 400.61,86.14 416.71,78.11 432.48,69.43 450.49,58.63 468.14,47.25 490.38,31.94 509.79,17.82 531.29,1.49" fill="none" stroke="#000000" stroke-width="1"/><polyline id="SvgjsPolyline3167" points="599.92,564.28 576.29,537.12 556.91,514.23 537.9,491.02 523.05,472.17 508.61,453 496.42,435.9 486.39,420.95 476.86,405.68 467.97,390.03 461.2,376.65 455.14,362.93 449.99,348.85 445.92,334.41 443.61,322.64 442.21,310.72 441.81,298.74 442.43,286.75 444.02,274.86 446.52,263.13 450.78,248.75 456.11,234.73 462.3,221.07 469.18,207.74 478.16,192.15 487.77,176.93 499.58,159.56 511.89,142.55 526.44,123.46 541.37,104.68 558.53,83.83 599.61,36.07" fill="none" stroke="#000000" stroke-width="1"/><polyline id="SvgjsPolyline3168" points="599.87,573.75 553.87,522.32 536.23,501.88 515.07,476.55 500.06,457.83 485.49,438.76 473.23,421.71 463.18,406.78 453.63,391.52 446.24,378.47 439.51,365.07 433.63,351.27 428.85,337.06 425.99,325.41 424.14,313.55 423.41,301.58 423.84,289.59 425.4,277.7 428,265.99 431.52,254.52 436.97,240.55 443.38,226.99 450.53,213.8 459.84,198.4 469.78,183.39 481.95,166.29 496.44,147.15 511.39,128.37 530.53,105.28 552.03,80.24 597.98,28.77" fill="none" stroke="#000000" stroke-width="1"/><polyline id="SvgjsPolyline3169" points="599.87,586.96 540.12,523.72 513.7,495.04 491.62,470.51 471.9,447.91 456.45,429.54 445.14,415.53 432.38,398.86 421.96,384.18 413.8,371.6 406.32,358.6 401.01,347.84 396.51,336.72 392.09,322.39 389.95,310.59 389.34,301.62 389.63,292.62 391.38,280.76 394.5,269.18 398.73,257.95 403.82,247.09 411.08,233.97 419.07,221.27 429.32,206.48 441.94,189.69 455.04,173.28 470.42,154.86 490.09,132.21 512.1,107.62 536.43,81.09 598.13,15.57" fill="none" stroke="#000000" stroke-width="1"/><polyline id="SvgjsPolyline3170" points="2.35,204.11 23.07,192 41.75,182.41 58.29,175.31 66.73,172.2 78.15,168.5 95.51,163.75 139.28,153.31 156.63,148.54 179.48,141.2 221.92,126.24 236.22,121.72 247.77,118.47 259.42,115.59 274.09,112.46 324.31,103.61 344.89,99.43 353.64,97.3 365.16,93.95 382.13,87.97 395.99,82.22 412.28,74.57 428.22,66.22 446.43,55.76 464.26,44.67 484.25,31.38 503.87,17.56 525.58,1.51" fill="none" stroke="#000000" stroke-width="1"/><polyline id="SvgjsPolyline3171" points="599.08,545.11 580.25,521.76 567.34,505.2 554.7,488.43 540.66,468.97 528.81,451.62 519.08,436.49 509.81,421.05 501.13,405.29 493.17,389.15 487.21,375.38 482.01,361.32 478.47,349.85 475.57,338.21 472.96,323.44 471.75,311.5 471.37,299.51 471.82,287.52 473.1,275.59 475.15,263.77 478.73,249.21 483.31,234.93 488.72,220.94 494.85,207.25 501.58,193.85 510.3,178.1 519.59,162.69 529.35,147.56 541.22,130.24 553.5,113.2 566.11,96.41 582.72,75.13 599.7,54.13" fill="none" stroke="#000000" stroke-width="1"/><polyline id="SvgjsPolyline3172" points="599.28,555.78 581.88,535.13 562.89,511.91 548.02,493.07 533.53,473.94 521.23,456.92 509.39,439.57 499.71,424.4 490.58,408.89 482.13,393 475.75,379.42 469.98,365.58 465.04,351.42 461.81,339.86 458.83,325.17 457.38,313.26 456.83,301.27 457.19,289.28 458.45,277.35 460.56,265.54 464.3,251.02 469.08,236.8 474.74,222.92 481.14,209.35 488.13,196.08 497.16,180.51 506.75,165.27 516.78,150.33 530.71,130.79 545.13,111.6 561.8,90.37 580.76,67.12 598.13,46.45" fill="none" stroke="#000000" stroke-width="1"/><polyline id="SvgjsPolyline3173" points="1.33,190.71 22.64,179.67 41.68,170.82 58.43,164.25 75.57,158.75 92.98,154.2 136.9,144.41 157.24,139.18 177.34,133.11 225.72,116.98 248.82,110.48 263.44,107.1 275.21,104.76 325.49,96.23 346.08,92.15 363.5,87.61 380.57,81.89 394.51,76.37 410.91,68.96 429.62,59.42 445.31,50.61 463.28,39.73 480.91,28.33 500.7,14.76 520.18,0.74" fill="none" stroke="#000000" stroke-width="1"/><polyline id="SvgjsPolyline3174" points="598.96,525.94 574.21,492.01 564.03,477.17 550.97,457.04 541.64,441.64 532.79,425.97 525.87,412.66 519.43,399.12 513.55,385.32 509.32,374.09 504.7,359.82 501.62,348.22 499.14,336.48 497.31,324.62 496.18,312.68 495.77,300.69 496.09,288.7 497.14,276.74 498.89,264.87 502,250.2 505.16,238.63 509.86,224.38 515.3,210.4 520.1,199.41 526.6,185.89 535.01,169.98 543.99,154.38 553.43,139.05 573.42,109.12 585.62,92.02 599.94,72.76" fill="none" stroke="#000000" stroke-width="1"/><polyline id="SvgjsPolyline3175" points="600,538.88 583.4,517.58 570.79,500.79 556.77,481.31 546.59,466.47 535.17,448.85 525.85,433.45 517.06,417.74 510.24,404.38 503.97,390.76 498.34,376.86 494.37,365.53 490.2,351.12 487.57,339.42 485.62,327.58 484.05,312.67 483.61,300.68 483.96,288.68 485.08,276.74 486.94,264.88 490.23,250.25 494.49,235.87 498.5,224.56 504.18,210.68 510.49,197.08 517.33,183.73 526.12,168.02 535.44,152.62 545.2,137.49 557.02,120.14 571.02,100.65 598.32,64.88" fill="none" stroke="#000000" stroke-width="1"/><polyline id="SvgjsPolyline3176" points="1.04,177.29 20.06,168.4 39.35,160.09 56.23,153.85 73.44,148.59 93.83,143.59 132.02,135.67 155.38,130.17 178.46,123.59 224.2,109.03 238.63,104.93 250.26,102.01 273.76,97.12 324.09,88.89 344.72,85 359.31,81.5 376.51,76.21 390.58,71.02 407.14,63.98 423.37,56.18 439.27,47.76 457.47,37.28 475.31,26.21 495.34,12.98 512.57,0.98" fill="none" stroke="#000000" stroke-width="1"/><polyline id="SvgjsPolyline3177" points="599.64,506.8 579.77,476.79 571.88,464.03 562.8,448.49 555.6,435.33 548.78,421.97 542.41,408.39 536.56,394.58 531.3,380.53 527.58,369.12 524.34,357.57 521.63,345.88 519.49,334.07 517.96,322.17 517.07,310.21 516.84,298.21 517.1,289.22 518.02,277.25 519.58,265.36 521.75,253.56 524.49,241.87 527.75,230.33 531.49,218.93 536.78,204.89 541.43,193.83 547.72,180.21 554.47,166.82 563.08,151.01 570.63,138.05 580.07,122.73 599.97,92.72" fill="none" stroke="#000000" stroke-width="1"/><polyline id="SvgjsPolyline3178" points="1.35,163.87 26.23,153.4 43.04,146.96 60.14,141.33 74.59,137.35 95.08,132.71 139.23,124.03 156.77,119.99 177.04,114.52 225.86,99.76 252.02,93.11 278.53,88 323,81.08 343.66,77.36 361.19,73.27 375.56,68.98 389.7,63.97 403.6,58.35 419.98,50.88 436.04,42.76 451.81,34.09 469.88,23.38 487.62,12.14 505.07,0.47" fill="none" stroke="#000000" stroke-width="1"/><polyline id="SvgjsPolyline3179" points="599.55,485.27 584.3,459.43 571.65,435.59 560.29,411.1 551.56,388.74 547.78,377.36 544.42,365.84 539.72,345.37 537.77,333.54 536.38,321.62 535.73,312.64 535.39,300.65 535.66,288.65 536.27,279.67 537.59,267.75 538.96,258.85 540.64,250.01 543.34,238.32 546.52,226.75 550.16,215.32 558.63,192.86 563.38,181.85 569.75,168.26 576.53,154.88 583.67,141.7 598.87,115.84" fill="none" stroke="#000000" stroke-width="1"/><polyline id="SvgjsPolyline3180" points="2.16,150.48 24.54,141.82 41.48,135.75 58.66,130.39 73.17,126.59 93.7,122.17 137.95,113.99 158.47,109.51 178.79,104.23 224.91,90.91 251.12,84.48 277.66,79.52 322.16,72.85 339.91,69.83 357.52,66.12 371.98,62.14 386.23,57.45 400.25,52.12 414.04,46.23 430.3,38.52 446.27,30.21 461.96,21.39 477.4,12.14 495.13,0.89" fill="none" stroke="#000000" stroke-width="1"/><polyline id="SvgjsPolyline3181" points="599.14,461.24 586.89,437.18 578.25,418.04 569.53,395.69 563.1,375.7 557.98,355.34 554.34,334.66 552.53,316.76 551.97,298.77 552.7,280.79 553.54,271.83 555.14,259.93 558.5,242.26 563.79,221.94 570.36,201.99 578.04,182.45 587.96,160.6 598.89,139.23" fill="none" stroke="#000000" stroke-width="1"/><polyline id="SvgjsPolyline3182" points="0.59,138.22 26.01,129.13 40.24,124.38 57.51,119.29 72.06,115.67 92.63,111.46 136.96,103.71 157.53,99.49 180.83,93.73 227.1,80.99 250.47,75.52 277.04,70.72 321.58,64.3 339.34,61.4 356.98,57.84 371.49,54.02 382.94,50.45 397.07,45.41 410.98,39.79 424.67,33.66 440.82,25.73 456.7,17.25 485.15,0.54" fill="none" stroke="#000000" stroke-width="1"/><polyline id="SvgjsPolyline3183" points="598.99,434.64 591.91,418.09 584.53,398.44 579.06,381.29 574.5,363.88 570.93,346.24 568.8,331.4 567.3,313.46 566.96,298.47 567.67,280.48 569.17,265.56 571.47,250.74 575.21,233.13 579.93,215.77 585.54,198.67 591.94,181.84 599.02,165.3" fill="none" stroke="#000000" stroke-width="1"/><polyline id="SvgjsPolyline3184" points="2.17,124.9 24.94,117.32 42.13,111.97 56.59,107.99 74.12,103.91 94.75,100 136.19,93.18 156.81,89.19 177.27,84.45 226.59,71.5 252.95,65.65 276.6,61.59 336,53.11 353.7,49.84 368.27,46.31 379.8,42.97 391.19,39.21 402.45,35.06 416.34,29.39 430.02,23.23 443.49,16.65 459.42,8.26 472.5,0.91" fill="none" stroke="#000000" stroke-width="1"/><polyline id="SvgjsPolyline3185" points="599.84,405.45 596.03,394.07 591.78,379.69 588.82,368.06 585.72,353.39 583.33,338.58 581.95,326.66 581.07,314.69 580.7,302.7 580.84,290.7 581.49,278.72 583.01,263.8 584.77,251.93 587,240.14 590.4,225.53 594.43,211.09 599.05,196.82" fill="none" stroke="#000000" stroke-width="1"/><polyline id="SvgjsPolyline3186" points="1.22,112.57 38.51,101.17 61.75,95.2 88.24,89.95 135.65,82.48 159.24,78.09 182.65,72.77 226.28,61.76 243.85,57.85 258.58,55.05 273.39,52.65 320.96,46.24 338.76,43.56 350.57,41.47 362.3,38.93 373.91,35.91 385.41,32.47 408.01,24.42 419.12,19.88 432.83,13.78 446.34,7.27 459.66,0.38" fill="none" stroke="#000000" stroke-width="1"/><polyline id="SvgjsPolyline3187" points="599.85,362.49 597.13,347.74 595.1,332.88 593.81,317.94 593.27,299.95 593.65,284.96 594.8,270 597.14,252.16 599.87,237.41" fill="none" stroke="#000000" stroke-width="1"/><polyline id="SvgjsPolyline3188" points="0.52,100.22 38,89.44 64.24,83.12 87.84,78.75 135.31,71.63 158.94,67.46 182.39,62.37 226.13,51.8 246.68,47.46 276.28,42.59 335.76,34.71 350.55,32.24 362.3,29.78 382.59,24.39 402.52,17.78 422.06,10.1 443.94,0.24" fill="none" stroke="#000000" stroke-width="1"/><polyline id="SvgjsPolyline3189" points="0.04,87.86 37.68,77.64 61.05,72.22 84.66,67.91 132.18,61.1 158.81,56.67 182.31,51.8 229.08,41 246.73,37.47 273.38,33.18 332.9,25.6 356.57,21.64 374.1,17.55 391.38,12.54 408.4,6.68 425.15,0.09" fill="none" stroke="#000000" stroke-width="1"/><polyline id="SvgjsPolyline3190" points="2.64,74.71 37.5,65.74 60.94,60.57 87.55,56.01 135.11,49.53 155.85,46.24 179.41,41.67 226.27,31.27 246.88,27.25 273.56,23.13 327.16,16.62 353.85,12.53 365.6,10.1 377.26,7.24 400.24,0.36" fill="none" stroke="#000000" stroke-width="1"/><polyline id="SvgjsPolyline3191" points="2.52,62.35 37.49,53.8 60.98,48.86 84.65,44.94 135.22,38.31 158.93,34.65 179.57,30.76 226.51,20.75 247.15,16.88 270.89,13.3 336.41,5.44 351.24,3.18 365.96,0.29" fill="none" stroke="#000000" stroke-width="1"/><polyline id="SvgjsPolyline3192" points="2.56,49.98 37.62,41.82 67.06,36.08 87.83,32.95 129.51,27.78 153.27,24.44 179.86,19.73 223.93,10.66 241.63,7.36 268.32,3.31 295.13,0.16" fill="none" stroke="#000000" stroke-width="1"/><polyline id="SvgjsPolyline3193" points="2.73,37.61 37.88,29.81 61.45,25.31 85.18,21.72 135.81,15.63 159.57,12.23 183.2,8.05 221.45,0.43" fill="none" stroke="#000000" stroke-width="1"/><polyline id="SvgjsPolyline3194" points="0.13,25.9 41.23,17.22 64.85,13.02 91.6,9.33 142.26,3.46 163.04,0.46" fill="none" stroke="#000000" stroke-width="1"/><polyline id="SvgjsPolyline3195" points="0.57,13.54 41.74,5.22 71.34,0.33" fill="none" stroke="#000000" stroke-width="1"/><polyline id="SvgjsPolyline3196" points="1.12,1.19 7.01,0.03" fill="none" stroke="#000000" stroke-width="1"/></g></svg>